Coordinates
version=1
nRows=11
nColumns=36
inDegrees=yes

Units are S.I. units (second, meters, Newtons, ...)
If the header above contains a line with 'inDegrees', this indicates whether rotational values are in degrees (yes) or radians (no).

endheader
time	pelvis_tilt	pelvis_list	pelvis_rotation	pelvis_tx	pelvis_ty	pelvis_tz	hip_flexion_r	hip_adduction_r	hip_rotation_r	knee_angle_r	knee_angle_r_beta	ankle_angle_r	subtalar_angle_r	mtp_angle_r	hip_flexion_l	hip_adduction_l	hip_rotation_l	knee_angle_l	knee_angle_l_beta	ankle_angle_l	subtalar_angle_l	mtp_angle_l	lumbar_extension	lumbar_bending	lumbar_rotation	arm_flex_r	arm_add_r	arm_rot_r	elbow_flex_r	pro_sup_r	arm_flex_l	arm_add_l	arm_rot_l	elbow_flex_l	pro_sup_l
      0.81666670	     -7.92699870	     -1.24542681	      0.53198999	      0.68392834	      0.98513711	     -0.16470449	     15.78796002	     -1.54000473	    -16.20805436	     27.21893504	      0.47506004	     16.67513822	    -11.35666099	     -7.49999818	     16.10780383	     -7.10270392	    -16.17473848	     28.16853756	      0.49163373	     21.97157362	      0.78188067	     -7.49999818	    -10.19598853	      1.69102846	     -2.91334136	     12.16216044	     -8.13874128	     12.83392020	     34.11114847	     90.65268507	     13.79025341	    -11.93382349	     23.65382793	     63.60424033	     98.87184417
      0.83333330	     -7.90334209	     -1.40528079	      0.88217296	      0.68643820	      0.99361776	     -0.16179447	     14.03392376	     -0.63872184	    -15.80741837	     23.79994114	      0.41538733	     15.05800852	    -11.37302932	     -7.49999823	     14.68705130	     -6.69353146	    -15.10479237	     25.04086033	      0.43704546	     20.05457815	      0.33446904	     -7.49999823	     -9.74826964	      1.73583385	     -2.80125059	     11.90386676	     -8.05178472	     13.05468096	     34.25084636	     90.58799332	     13.82267407	    -12.06384835	     24.36349134	     64.81299809	     99.17068708
      0.85000000	     -8.12780399	     -1.40647490	      1.15062966	      0.68494993	      0.99668942	     -0.16320339	     12.98485990	     -0.19143938	    -15.71570073	     21.14558577	      0.36906009	     13.64844354	    -11.17970659	     -7.49999826	     13.88738159	     -6.20106135	    -14.24774280	     22.50956464	      0.39286602	     18.52782783	      0.11660189	     -7.49999826	     -9.16037195	      1.70838302	     -2.85922855	     11.67077209	     -7.95716664	     13.37815750	     34.80744567	     90.52173496	     13.89524744	    -12.15232303	     24.93693488	     66.05597608	     99.35406248
      0.86666670	     -8.35686255	     -1.44119010	      1.48635049	      0.68235144	      0.99636903	     -0.16031411	     11.98858634	      0.38158966	    -15.20199544	     18.46817819	      0.32233052	     12.61892619	    -11.16075316	     -7.49999830	     13.51373647	     -5.96488264	    -13.42927229	     20.74719478	      0.36210686	     17.10914530	     -0.59288992	     -7.49999830	     -8.53491492	      1.57429835	     -2.76344903	     11.36171914	     -7.97916889	     13.86805929	     35.55505336	     90.40454996	     14.02031712	    -12.53350872	     25.62833729	     67.84050255	     99.51146309
      0.88333330	     -8.88326383	     -1.36527380	      1.42159906	      0.68540165	      0.99800887	     -0.16357616	     11.36097561	      0.57405474	    -14.89762759	     16.04529316	      0.28004320	     11.52589300	    -10.70085965	     -7.49999836	     12.69562593	     -5.44463095	    -13.15213674	     17.92044647	      0.31277079	     15.97296254	     -0.20678930	     -7.49999836	     -7.12702663	      1.53282367	     -2.61145456	     10.96997382	     -7.96346191	     14.22053269	     35.57700686	     89.94680616	     13.93430881	    -12.38531271	     26.10546438	     68.73381339	     97.81138798
      0.90000000	     -8.78321613	     -1.22926455	      1.39348697	      0.69271784	      1.00093094	     -0.16234887	      9.81838784	      0.87976507	    -14.16693307	     13.31110215	      0.23232256	     10.26836728	    -11.05735649	     -7.49999840	     11.08271944	     -4.87345082	    -12.49895836	     15.17626277	      0.26487575	     14.96168170	     -0.68104844	     -7.49999840	     -6.49254799	      1.32013004	     -2.61869723	     10.28520987	     -8.22388858	     15.13729481	     36.88233858	     89.85264193	     13.45551090	    -12.85831463	     26.75311499	     70.84806548	     98.07503913
      0.91666670	     -8.97316857	     -1.20419546	      1.06203781	      0.69263508	      1.00059595	     -0.16769167	      8.97638702	      1.03091914	    -13.61038894	     11.32241213	      0.19761337	      9.08584159	    -11.23310746	     -7.49999844	     10.01978366	     -4.37390197	    -12.04223570	     12.87117916	      0.22464446	     14.29256512	     -1.23793005	     -7.49999844	     -5.36608025	      1.39012395	     -2.51147381	      9.74774080	     -8.73526473	     16.19790455	     37.92523289	     89.65011037	     13.17347580	    -12.64940791	     27.10385588	     72.55832671	     98.28406398
      0.93333330	     -9.12968532	     -1.18684345	      0.83117458	      0.68936550	      0.99881422	     -0.16971835	      8.42280540	      1.09168323	    -13.20955358	      9.83997652	      0.17173999	      8.06255478	    -11.52226713	     -7.49999848	      9.12338639	     -3.84452935	    -11.29659768	     10.82550963	      0.18894079	     13.59816023	     -2.19697972	     -7.49999848	     -4.28184197	      1.52076319	     -2.39870096	      9.23786583	     -9.42138772	     17.30950847	     39.03530821	     89.36351472	     13.09763524	    -12.80643622	     27.80713733	     74.52676915	     98.44789990
      0.95000000	     -9.32160011	     -1.11875942	      0.63887286	      0.68874919	      0.99882750	     -0.17014546	      7.96571367	      1.07355235	    -12.66839310	      8.42868539	      0.14710831	      7.22155230	    -11.77550377	     -7.49999868	      8.32670795	     -3.32036298	    -10.75041688	      8.76902916	      0.15304843	     12.81620427	     -2.80045906	     -7.49999868	     -3.18777193	      1.62413122	     -2.23226098	      8.69793410	    -10.08557446	     18.42394657	     40.12566599	     87.13646465	     13.41222351	    -12.92043952	     28.83391142	     76.42194617	     97.25832995
      0.96666670	     -9.63289964	     -1.14111513	      0.41042909	      0.69257743	      1.00261211	     -0.16638673	      7.51338807	      1.30242174	    -12.36868291	      6.91808250	      0.12074332	      6.47017303	    -11.47736638	     -7.49999869	      7.60211386	     -3.05518314	    -10.37614597	      6.88261618	      0.12012431	     12.19154976	     -2.78561463	     -7.49999869	     -1.73132009	      1.70650890	     -2.01425617	      8.17832247	    -10.25239357	     18.73097643	     40.29087949	     87.11554009	     13.42720127	    -12.92213211	     29.11919106	     77.42250851	     97.31895637
      0.98333330	     -9.14589206	     -1.11184854	      0.13123131	      0.69524828	      1.00740053	     -0.16369835	      5.96847885	      1.62689943	    -11.68406792	      5.09864079	      0.08898807	      5.15025914	    -11.88038703	     -7.49999872	      6.02724825	     -2.82628679	     -9.98307427	      4.92704417	      0.08599314	     10.56646676	     -3.78129336	     -7.49999872	     -1.64267053	      1.67378637	     -1.80651243	      7.83660149	    -10.51871418	     19.59951842	     41.22487498	     86.93835795	     13.77786331	    -13.57465599	     29.82007268	     79.84443692	     97.46653788
